<?xml version="1.0" standalone="no"?>
<!DOCTYPE svg PUBLIC "-//W3C//DTD SVG 20010904//EN"
 "http://www.w3.org/TR/2001/REC-SVG-20010904/DTD/svg10.dtd">
<svg version="1.0" xmlns="http://www.w3.org/2000/svg"
 width="300.000000pt" height="300.000000pt" viewBox="0 0 300.000000 300.000000"
 preserveAspectRatio="xMidYMid meet">
<metadata>
Created by potrace 1.10, written by Peter Selinger 2001-2011
</metadata>
<g transform="translate(0.000000,300.000000) scale(0.100000,-0.100000)"
fill="#000000" stroke="none">
<path d="M1355 2175 c-366 -80 -604 -441 -530 -805 29 -143 91 -257 192 -356
76 -75 142 -116 176 -111 22 3 36 -4 60 -28 41 -41 116 -59 247 -59 119 -1
180 14 298 70 173 83 315 255 362 440 25 95 27 253 5 339 -19 75 -75 194 -116
249 -79 104 -224 210 -259 188 -13 -8 -22 -4 -42 22 -22 27 -38 35 -102 49
-90 20 -207 21 -291 2z m323 -50 c50 -15 52 -17 52 -51 0 -31 -3 -35 -17 -29
-249 103 -544 12 -698 -215 -72 -105 -100 -197 -99 -325 0 -163 57 -305 165
-411 l49 -48 0 337 0 337 34 0 c31 0 37 -6 106 -110 l72 -109 72 109 c69 107
72 110 109 110 42 0 45 -7 19 -41 -11 -13 -58 -82 -107 -154 -48 -71 -90 -131
-94 -132 -3 -1 -35 43 -71 98 -36 54 -67 99 -70 99 -3 0 -4 -148 -2 -330 1
-181 0 -330 -3 -330 -19 0 -131 89 -179 142 -283 312 -188 818 189 1008 103
52 195 71 315 66 58 -2 129 -12 158 -21z m187 -90 c178 -127 278 -317 278
-530 0 -107 -14 -176 -58 -270 -76 -165 -214 -290 -385 -348 -118 -40 -288
-41 -397 -3 -33 11 -38 17 -41 49 l-3 36 53 -21 c67 -26 214 -35 300 -19 172
33 332 156 406 312 47 99 62 162 62 267 0 148 -53 281 -157 390 l-63 67 3
-343 2 -342 -38 0 -37 0 6 95 7 95 -127 0 -128 0 4 -95 3 -95 -37 0 -38 0 0
125 0 125 35 55 c20 30 38 55 40 55 2 0 3 -23 2 -51 l-2 -50 120 0 120 0 0
270 c0 149 2 271 4 271 2 0 32 -20 66 -45z m-220 -11 c33 -8 70 -13 83 -11
l22 4 -2 -216 -3 -216 -73 -3 c-62 -2 -73 0 -78 15 -3 10 -9 26 -14 35 -6 10
-5 29 1 48 10 27 8 34 -12 56 -26 27 -73 32 -103 9 -11 -8 -40 -45 -66 -82
-25 -37 -51 -68 -57 -70 -6 -2 -31 24 -54 59 -58 86 -83 108 -124 108 -24 0
-39 -7 -54 -26 -20 -26 -21 -39 -21 -300 0 -156 -4 -274 -9 -274 -18 0 -79
106 -100 174 -92 298 61 591 359 687 71 23 224 25 305 3z m327 -260 c47 -88
68 -168 68 -262 0 -149 -53 -276 -161 -384 -139 -138 -334 -190 -528 -139 -39
10 -81 17 -91 14 -19 -5 -20 1 -20 221 0 124 3 226 7 226 3 0 21 -18 40 -40
19 -22 42 -40 52 -40 10 0 35 19 57 42 l39 43 5 -77 c5 -63 10 -82 30 -103 28
-30 59 -32 93 -5 23 18 26 29 29 93 l3 72 75 0 75 0 6 -68 c4 -52 11 -73 29
-92 29 -31 66 -32 97 -3 22 21 23 26 23 208 0 231 9 372 24 367 6 -2 27 -35
48 -73z"/>
</g>
</svg>
